<svg width="24" height="24" viewBox="0 0 24 24" fill="none" xmlns="http://www.w3.org/2000/svg">
<g clip-path="url(#clip0_105_601)">
<path d="M7.45574 5C11.0216 5 13.9115 7.91045 13.9115 11.5004C13.9115 15.0904 11.0207 18 7.45574 18C3.89078 18 1 15.0896 1 11.5004C1 7.91134 3.89078 5 7.45574 5ZM17.7653 5.38091C19.5482 5.38091 20.9931 8.12057 20.9931 11.5004C20.9931 14.8794 19.5482 17.6191 17.7653 17.6191C15.9823 17.6191 14.5374 14.8794 14.5374 11.5004C14.5374 8.12147 15.9823 5.38091 17.7653 5.38091ZM22.7546 6.01843C23.3805 6.01843 23.8902 8.47287 23.8902 11.5004C23.8902 14.528 23.3823 16.9816 22.7546 16.9816C22.1269 16.9816 21.6199 14.5262 21.6199 11.4996C21.6199 8.47287 22.1278 6.01843 22.7546 6.01843Z" fill="black"/>
</g>
<defs>
<clipPath id="clip0_105_601">
<rect width="22.8902" height="13" fill="white" transform="translate(1 5)"/>
</clipPath>
</defs>
</svg>
